<svg width="126" height="17" fill="none" xmlns="http://www.w3.org/2000/svg"><path fill-rule="evenodd" clip-rule="evenodd" d="M33.583 10.011c-5.413 1.537-11.663 3.065-17.675 3.447-5.14.326-10.103-.18-14.166-2.333a1.194 1.194 0 00-1.6.466c-.31.56-.096 1.263.476 1.566 4.432 2.349 9.837 2.963 15.442 2.607 6.12-.388 12.484-1.927 18.005-3.486.641 1.27 1.968 2.455 4.305 3.33 3.59 1.342 8.491 1.325 13.655.569 7.489-1.097 15.545-3.713 20.724-5.57.213-.077.529-.197.916-.356.118.255.25.506.397.753 1.27 2.151 3.517 3.89 5.807 4.511 14.524 3.939 31.474-.78 45.275-4.621.623-.174.987-.814.812-1.427a1.185 1.185 0 00-1.459-.796c-13.414 3.734-29.882 8.444-44 4.617-1.737-.471-3.428-1.808-4.391-3.44a6.652 6.652 0 01-.293-.558c1.903-.923 4.141-2.21 5.345-3.587 1.237-1.412 1.544-2.919.468-4.342C80.7.144 79.297.04 77.838.67c-1.572.676-3.192 2.256-3.716 2.997-.982 1.385-1.294 2.887-1.114 4.351-.463.192-.839.334-1.07.417-5.067 1.817-12.941 4.383-20.264 5.455-4.711.69-9.187.783-12.463-.442-1.397-.523-2.32-1.133-2.82-1.84.988-.29 1.941-.575 2.852-.847 1.801-.537 5.552-1.427 8.231-3.013 2.13-1.26 3.576-2.976 3.492-5.126C50.924 1.52 50.27.782 49.23.368c-1.553-.617-4.238-.318-5.238-.11-3.033.63-7.082 3.235-9.084 6.171-.8 1.172-1.275 2.398-1.326 3.582zm2.492-.722c.857-.252 1.685-.5 2.48-.737 1.682-.502 5.197-1.3 7.699-2.78 1.324-.784 2.406-1.723 2.354-3.06-.005-.104-.11-.134-.203-.176a2.257 2.257 0 00-.484-.146c-1.189-.237-2.785-.007-3.438.128-2.545.529-5.93 2.731-7.611 5.195-.355.52-.638 1.05-.797 1.576zM75.34 6.955c1.11-.558 2.271-1.234 3.187-1.97.486-.39.897-.792 1.157-1.208.217-.345.302-.698.043-1.04-.104-.138-.26-.14-.42-.115-.17.028-.345.087-.52.164-1.152.496-2.342 1.656-2.724 2.2a3.865 3.865 0 00-.723 1.97z" fill="#2BC23A"/></svg>