<svg width="100" height="51" fill="none" xmlns="http://www.w3.org/2000/svg"><path fill-rule="evenodd" clip-rule="evenodd" d="M94.679 7.47c-18.77 34.9-56.261 49.088-91.084 29.44a2.418 2.418 0 00-3.283.9 2.418 2.418 0 00.914 3.292C38.55 62.18 78.805 47.154 98.923 9.759a2.423 2.423 0 00-.981-3.271c-1.172-.613-2.634-.184-3.263.981z" fill="#F1553F"/><path d="M32.9 21.943a7.02 7.02 0 100-14.04 7.02 7.02 0 000 14.04zm29.06-7.468a6.883 6.883 0 100-13.765 6.883 6.883 0 000 13.765z" fill="#F1553F"/></svg>