<svg width="93" height="90" fill="none" xmlns="http://www.w3.org/2000/svg"><path fill-rule="evenodd" clip-rule="evenodd" d="M40.915 36.354c-8.5-4.49-15.854-10.404-21.983-17.794a3.489 3.489 0 00-4.904-.451 3.489 3.489 0 00-.451 4.903c6.733 8.083 14.772 14.567 24.09 19.493a3.495 3.495 0 004.71-1.445 3.496 3.496 0 00-1.462-4.706z" fill="#F1553F"/><path fill-rule="evenodd" clip-rule="evenodd" d="M32.264 13.858c1.785 6.807 3.536 13.62 5.372 20.416a3.48 3.48 0 004.265 2.446 3.48 3.48 0 002.446-4.265c-1.833-6.779-3.58-13.575-5.365-20.381-.485-1.848-2.398-2.956-4.25-2.467-1.853.49-2.972 2.396-2.468 4.251zm25.581-3.784c-3.015 7.47-6.713 14.547-10.431 21.7a3.46 3.46 0 001.474 4.687 3.46 3.46 0 004.687-1.475c3.823-7.334 7.62-14.627 10.732-22.312.718-1.78-.158-3.803-1.939-4.52-1.763-.723-3.805.14-4.523 1.92z" fill="#F1553F"/><path fill-rule="evenodd" clip-rule="evenodd" d="M79.748 31.061c-11.715 2.95-24.269 5.54-36.246 7.213a3.494 3.494 0 00-2.956 3.943 3.48 3.48 0 003.926 2.959c12.216-1.722 25.025-4.363 36.98-7.363a3.492 3.492 0 002.524-4.227 3.492 3.492 0 00-4.228-2.525z" fill="#F1553F"/><path fill-rule="evenodd" clip-rule="evenodd" d="M37.545 41.961c9.121 7.434 18.463 14.645 27.14 22.596a3.494 3.494 0 004.924-.228 3.476 3.476 0 00-.224-4.906c-8.783-8.036-18.23-15.332-27.458-22.85-1.49-1.205-3.681-.986-4.885.503a3.46 3.46 0 00.503 4.885z" fill="#F1553F"/><path fill-rule="evenodd" clip-rule="evenodd" d="M40.284 44.1c3.814 8.911 6.164 17.697 8.23 27.09.402 1.871 2.26 3.053 4.13 2.652a3.467 3.467 0 002.648-4.146c-2.157-9.837-4.622-19.007-8.612-28.344a3.478 3.478 0 00-4.578-1.814 3.46 3.46 0 00-1.818 4.562z" fill="#F1553F"/><path fill-rule="evenodd" clip-rule="evenodd" d="M40.438 43.287c-3.258 12.171-3.59 25.021-7.29 37.034-.567 1.82.472 3.773 2.31 4.338a3.48 3.48 0 004.34-2.292c3.72-12.088 4.072-25.013 7.365-37.28a3.509 3.509 0 00-2.456-4.272 3.5 3.5 0 00-4.269 2.472z" fill="#F1553F"/><path fill-rule="evenodd" clip-rule="evenodd" d="M42.963 40.16c-10.591 4.193-21.382 7.326-32.17 10.904a3.468 3.468 0 00-2.207 4.393 3.468 3.468 0 004.393 2.206c10.908-3.601 21.828-6.797 32.552-11.035 1.77-.718 2.651-2.745 1.95-4.518-.72-1.788-2.73-2.672-4.518-1.95z" fill="#F1553F"/><path fill-rule="evenodd" clip-rule="evenodd" d="M49.549 33.415c-2.287.362-4.465.648-6.746.778a3.479 3.479 0 00-3.278 3.672 3.488 3.488 0 003.671 3.277c2.527-.144 4.93-.46 7.439-.867a3.454 3.454 0 002.877-3.98 3.462 3.462 0 00-3.963-2.88z" fill="#F1553F"/></svg>