<svg width="42" height="42" fill="none" xmlns="http://www.w3.org/2000/svg"><path fill-rule="evenodd" clip-rule="evenodd" d="M18.694 15.78c-3.899-3.205-7.058-7.022-9.432-11.468a1.832 1.832 0 00-2.474-.749 1.832 1.832 0 00-.749 2.474c2.611 4.867 6.063 9.049 10.336 12.564.776.64 1.935.53 2.575-.247a1.835 1.835 0 00-.256-2.574z" fill="#F1553F"/><path fill-rule="evenodd" clip-rule="evenodd" d="M16.615 3.298c.2 3.689.383 7.378.612 11.066a1.827 1.827 0 001.935 1.708 1.827 1.827 0 001.708-1.936c-.229-3.68-.411-7.359-.612-11.048a1.828 1.828 0 00-1.927-1.716 1.82 1.82 0 00-1.716 1.926zm13.555.749c-2.337 3.524-4.985 6.775-7.651 10.062-.64.785-.52 1.935.265 2.565.785.64 1.935.52 2.565-.264 2.74-3.37 5.46-6.72 7.87-10.345.558-.84.32-1.972-.52-2.53a1.826 1.826 0 00-2.529.512z" fill="#F1553F"/><path fill-rule="evenodd" clip-rule="evenodd" d="M39.224 17.15c-6.336.282-13.065.291-19.402-.11a1.834 1.834 0 00-1.936 1.716 1.827 1.827 0 001.708 1.936c6.464.402 13.33.392 19.795.11a1.833 1.833 0 001.743-1.909 1.833 1.833 0 00-1.908-1.744z" fill="#F1553F"/><path fill-rule="evenodd" clip-rule="evenodd" d="M16.37 18.309c3.908 4.784 7.953 9.477 11.578 14.48a1.834 1.834 0 002.556.402 1.825 1.825 0 00.402-2.547c-3.67-5.058-7.761-9.806-11.715-14.645a1.825 1.825 0 00-2.565-.256 1.817 1.817 0 00-.256 2.566z" fill="#F1553F"/><path fill-rule="evenodd" clip-rule="evenodd" d="M17.553 19.697c1.023 4.985 1.306 9.751 1.38 14.8a1.824 1.824 0 001.843 1.799 1.82 1.82 0 001.8-1.853c-.074-5.287-.375-10.263-1.443-15.486a1.826 1.826 0 00-2.164-1.415 1.817 1.817 0 00-1.416 2.155z" fill="#F1553F"/><path fill-rule="evenodd" clip-rule="evenodd" d="M17.718 19.295c-2.958 5.917-4.483 12.49-7.651 18.28a1.827 1.827 0 003.205 1.753c3.186-5.826 4.73-12.436 7.715-18.398.447-.904.082-2-.813-2.456-.904-.448-2-.083-2.456.821z" fill="#F1553F"/><path fill-rule="evenodd" clip-rule="evenodd" d="M19.346 17.953c-5.889 1.04-11.769 1.515-17.694 2.218a1.82 1.82 0 00-1.598 2.027 1.82 1.82 0 002.027 1.598c5.99-.703 11.942-1.196 17.904-2.246a1.842 1.842 0 001.48-2.118 1.823 1.823 0 00-2.119-1.48z" fill="#F1553F"/><path fill-rule="evenodd" clip-rule="evenodd" d="M23.444 15.178c-1.214-.055-2.365-.137-3.552-.31a1.826 1.826 0 10-.53 3.615c1.316.191 2.585.283 3.918.338a1.814 1.814 0 001.899-1.744 1.818 1.818 0 00-1.735-1.9z" fill="#F1553F"/></svg>