<svg width="36" height="36" fill="none" xmlns="http://www.w3.org/2000/svg"><path fill-rule="evenodd" clip-rule="evenodd" d="M14.26 7.094a20.316 20.316 0 01-.216-1.703c-.07-.849-.027-1.704-.052-2.552-.011-.36-.054-1.299-.037-1.434C14.113.23 15.062.05 15.34.017c.134-.02 1.514-.174 1.811 1.356.366 1.87.483 3.754.353 5.6.302 1.568.817 3.13 1.498 4.544 2.71 5.625 7.871 6.172 13.464 6.12a1.602 1.602 0 011.62 1.517 1.603 1.603 0 01-1.452 1.685c-3.126.302-8.673 2.809-10.59 5.419-.402.546-.635 1.864-.944 3.156-.43 1.794-.943 3.568-1.517 4.314-.086.116-1.133 1.299-1.445 1.472-.751.412-1.352.174-1.694-.045-.341-.218-.727-.65-.882-1.363-.161-.745-.025-2.276-.05-2.603-.091-1.19-.33-3.523-.814-5.529-.262-1.08-.541-2.076-1.003-2.571-1.708-1.832-4.44-1.563-6.741-1.26-.265.032-.529.07-.792.103-.937.276-1.931.482-2.983.604-1.587.186-1.848-1.273-1.862-1.37-.03-.212-.14-1.305 1.057-1.742.13-.045 1.093-.257 1.464-.34.517-.116 1.04-.206 1.564-.29 5.42-1.684 8.362-6.415 8.858-11.7zm1.86 5.844c2.045 4.23 5.15 6.274 8.83 7.2h-.001c-2.298 1.202-4.388 2.706-5.496 4.217-.42.572-.806 1.723-1.154 3.015-.188-1.202-.442-2.481-.779-3.574-.382-1.247-.897-2.282-1.472-2.9-1.11-1.189-2.502-1.85-3.999-2.179 1.792-1.588 3.151-3.568 4.07-5.779z" fill="#F1553F"/></svg>