<svg width="172" height="116" fill="none" xmlns="http://www.w3.org/2000/svg"><path fill-rule="evenodd" clip-rule="evenodd" d="M112.271 60.19c1.536-.732 3.071-1.482 4.327-2.187 22.474-12.456 43.274-31.968 55-54.844.418-.833.139-1.86-.698-2.288a1.636 1.636 0 00-2.235.736c-11.586 22.294-31.826 41.285-53.742 53.425-.698.403-1.536.82-2.374 1.243-.139-2.073-.837-3.78-1.814-5.157-1.535-2.04-3.908-3.427-6.7-4.196-3.909-1.062-8.515-.945-12.702.027-3.211.779-6.143 2.11-7.957 3.753-1.536 1.325-2.373 2.872-2.513 4.502-.14 1.717.558 3.624 2.652 5.54 3.49 3.323 8.236 4.31 13.401 3.888 3.769-.313 7.677-1.404 11.307-2.76-.419 1.133-.978 2.357-1.676 3.677-5.583 9.921-18.983 19.268-34.757 27.015-24.01 11.765-53.604 19.739-70.075 19.818-.838.004-1.676.769-1.676 1.707 0 .938.838 1.696 1.676 1.692 16.89-.081 47.042-8.155 71.61-20.165 16.472-8.103 30.431-18.04 36.155-28.42 1.395-2.61 2.373-4.938 2.791-7.006zm-3.071-2.363c.14-1.91-.279-3.45-1.116-4.668-1.117-1.472-2.932-2.405-4.886-2.96-3.35-.92-7.399-.785-11.028.058-2.513.605-4.886 1.568-6.421 2.82-.838.708-1.397 1.477-1.536 2.364 0 .906.559 1.828 1.536 2.838 2.931 2.664 6.84 3.303 10.888 2.965 4.188-.351 8.794-1.778 12.563-3.417z" fill="#0E84DA"/><path fill-rule="evenodd" clip-rule="evenodd" d="M168.704 1.769c-3.49 9.17-4.189 19.93-2.933 29.631.14.931.977 1.593 1.815 1.476.977-.116 1.676-.966 1.536-1.896-1.117-9.167-.558-19.336 2.792-28 .279-.877-.14-1.86-.977-2.195-.978-.334-1.954.107-2.233.984z" fill="#0E84DA"/><path fill-rule="evenodd" clip-rule="evenodd" d="M168.752 1.283c-6.002 7.242-16.193 10.202-25.267 11.339-.837.117-1.535.968-1.395 1.9a1.74 1.74 0 001.954 1.472c9.772-1.24 20.799-4.657 27.36-12.556.558-.726.418-1.797-.28-2.391-.698-.596-1.813-.489-2.372.236z" fill="#0E84DA"/></svg>