<svg width="28" height="28" fill="none" xmlns="http://www.w3.org/2000/svg"><path d="M18.976 11.893l-9.744.34a.204.204 0 00-.196.21l.356 10.202c.004.111.099.2.21.195l9.745-.34a.204.204 0 00.195-.21l-.356-10.2a.204.204 0 00-.21-.197zm-8.266 1.915l6.902-.241.104 2.969-6.903.24-.103-2.968zm7.159 7.118l-6.902.24-.104-2.968 6.902-.241.104 2.969z" fill="#001857"/><path d="M12.139 19.805a.812.812 0 101.624-.057.812.812 0 00-1.624.057zm-.158-4.517a.812.812 0 101.623-.056.812.812 0 00-1.623.056z" fill="#001857"/><path d="M21.633 9.842c-1.27-3.028-4.307-5.106-7.775-4.985a8.126 8.126 0 00-7.41 5.513 5.087 5.087 0 00-3.608 5.075c.108 2.648 2.239 4.73 4.835 4.871a.203.203 0 00.214-.21l-.054-1.533a.203.203 0 00-.184-.194 3.167 3.167 0 01-1.86-.812 3.13 3.13 0 01-1.023-2.215 3.133 3.133 0 01.597-1.962 3.162 3.162 0 011.639-1.168l.953-.287.32-.943a6.248 6.248 0 012.135-2.958 6.147 6.147 0 013.513-1.246 6.188 6.188 0 014.966 2.222c.4.477.724 1.009.962 1.58l.382.916.969.22a3.153 3.153 0 011.578 5.245 3.16 3.16 0 01-1.794.94.2.2 0 00-.168.206l.053 1.535c.004.12.112.21.23.195 2.573-.323 4.548-2.547 4.474-5.191a5.087 5.087 0 00-3.944-4.814z" fill="#001857"/></svg>