<svg width="34" height="35" fill="none" xmlns="http://www.w3.org/2000/svg"><path fill-rule="evenodd" clip-rule="evenodd" d="M3.616 19.272c1.343-1.051 2.706-2.307 3.594-3.764 1.055-1.73 1.12-3.528.96-5.344-.206-2.333-.767-4.703-.865-7.076-.036-.881.307-1.334.453-1.532A2.242 2.242 0 019.055.682c.557-.142 1.372-.185 2.167.563.114.107.271.275.423.527.112.185.349.8.482 1.042.33.594.64 1.195.945 1.802 1.016 2.019 1.795 3.761 3.421 5.385 2.207 2.205 4.074 3.382 6.114 3.499 1.972.113 4.01-.711 6.488-2.142.233-.145.466-.281.7-.407a2.307 2.307 0 012.278 4.012 30.13 30.13 0 01-.668.39c-3.297 2.088-6.4 6.65-7.89 10.237-.46 1.105-.752 3.866-1.356 5.766-.445 1.401-1.12 2.453-1.808 2.974-.46.35-.907.468-1.298.5a2.353 2.353 0 01-1.585-.435 2.59 2.59 0 01-.767-.86c-.106-.191-.283-.708-.36-.943-.488-.705-1.02-1.374-1.484-2.094-1.108-1.717-2.451-2.591-4.1-3.787-1.541-1.12-2.979-1.667-4.88-1.853-.234.02-2.114.173-2.81.134-1.015-.06-1.643-.517-1.905-.788a2.59 2.59 0 01-.714-1.348 2.459 2.459 0 01.311-1.771c.207-.35.56-.741 1.1-1.055.419-.243 1.592-.695 1.757-.758zm9.177-6.461c.14.153.287.304.438.456 3.233 3.23 6.124 4.67 9.112 4.84l.1.005c-1.328 1.898-2.438 3.895-3.19 5.706-.31.745-.576 2.168-.884 3.638-1.361-1.905-2.93-3.05-4.9-4.48-1.504-1.092-2.939-1.813-4.553-2.251.85-.868 1.623-1.811 2.235-2.815 1.019-1.672 1.494-3.373 1.642-5.1z" fill="#0E84DA"/></svg>