<svg width="23" height="27" fill="none" xmlns="http://www.w3.org/2000/svg"><path d="M6.772 9.865a.433.433 0 01-.459.405.433.433 0 01-.429-.436.433.433 0 01.459-.405.433.433 0 01.43.436zm-2.675 3.383a.433.433 0 01-.459.405.433.433 0 01-.43-.437.433.433 0 01.46-.405.433.433 0 01.43.437zm2.429 3.665a.433.433 0 01-.459.406.433.433 0 01-.43-.436.433.433 0 01.46-.406.433.433 0 01.43.436z" fill="#10B3EA"/><path fill-rule="evenodd" clip-rule="evenodd" d="M19.195 26.625c1.533.053 2.817-1.078 2.868-2.528l.622-17.818a2.56 2.56 0 00-.804-1.94l-3.167-3.03a2.866 2.866 0 00-1.88-.783L3.668.066C2.135.014.851 1.146.8 2.595L.076 23.33c-.05 1.45 1.151 2.668 2.685 2.722l16.434.574zm-8.24-7.306l-.198 5.697 8.484.296c.766.027 1.408-.539 1.434-1.264l.586-16.797-2.776-.097c-1.533-.054-2.735-1.272-2.684-2.722l.091-2.625-4.271-.149-.246 7.038c-.017.493-.454.877-.975.859l-1.765-.062-.014-.001c-.238-.027-.796-.088-1.216-.542-.428-.463-1.066-.459-1.402-.365-.327.085-.987.45-1.014 1.229-.034.973.758 1.343 1.34 1.363.516.018.665-.08.752-.137.01-.008.02-.014.03-.02a.67.67 0 00.06-.047c.187-.155.735-.61 1.599-.58l4.905.172.145-.018c.324-.035.859-.094 1.371-.482.294-.2 1.012-.513 1.532-.158l.004.003c.275.17.999.636.745 1.57-.083.187-.471 1.042-1.53.955-.056-.014-.107-.021-.156-.028-.17-.023-.33-.046-.664-.343-.431-.384-.73-.579-1.422-.603l-1.663-.058c-.268 0-.81.166-.834.84-.03.842-.78.894-1.252.878l-3.88-.136c-.24-.008-1.016-.303-1.446-.708-.161-.152-.951-.56-1.72-.008-.341.243-.882.938-.312 1.78.348.38.887.821 1.814.511.124-.042.24-.123.373-.216.316-.222.726-.51 1.566-.48l9.838.344c.24.017.863-.065 1.434-.53.714-.58 1.798-.133 2.095.416.26.483.34 1.381-.592 1.849-.264.131-.948.272-1.575-.213-.626-.485-1.19-.62-1.393-.628l-4.24-.148c-.269.017-.813.22-.836.893-.03.841-.834.84-1.25.825l-1.441-.05c-.212-.017-.76-.159-1.256-.597-.619-.549-1.726-.614-2.201.265-.475.879-.004 1.712.628 1.892.632.18.991.219 1.704-.336.504-.391 1.144-.363 1.973-.328l.341.014 4.046.142c.259.017.89-.059 1.35-.506.454-.274 1.776-.781 2.302.817.172.638-.36 1.594-1.497 1.555-.203-.008-.711-.125-1.119-.54-.402-.41-.753-.421-1.934-.462l-.934-.033c-.268 0-.81.161-.833.814zm4.73-8.156c-.05-.317.243-.575.574-.505a.463.463 0 01.36.365c.05.317-.243.574-.574.505a.456.456 0 01-.36-.365zm3.005 3.101c-.331-.07-.624.189-.574.506.027.18.173.32.36.364.331.07.624-.188.574-.505a.463.463 0 00-.36-.365zm-3.199 4.04c-.05-.317.243-.575.574-.505a.463.463 0 01.36.364c.05.318-.243.575-.574.506a.456.456 0 01-.36-.365z" fill="#10B3EA"/></svg>