<svg width="28" height="28" fill="none" xmlns="http://www.w3.org/2000/svg"><path d="M8.537 6.028l4.076-.143L12.435.79c-1.651.658-3.048 2.607-3.898 5.238zm15.811-.095c-1.496-1.93-3.489-3.478-5.763-4.337a15.163 15.163 0 012.3 4.51l3.464-.12-.002-.053zm-1.82 6.747l4.6-.16a12.964 12.964 0 00-1.298-4.546l-3.957.139c.346 1.412.548 2.936.655 4.568zM14.473.72l.178 5.094 4.076-.142c-1.031-2.565-2.56-4.412-4.254-4.953zm7.791 18.601l3.958-.138c.543-1.444.886-2.986.977-4.625l-4.6.16c.006 1.584-.087 3.17-.335 4.603zm-6.884 7.382c1.6-.655 2.996-2.605 3.899-5.237l-4.076.142.178 5.095zm4.059-.652c2.227-1.069 4.127-2.7 5.444-4.78l-3.445.12c-.452 1.79-1.169 3.38-2 4.66zM2.933 6.223l3.445-.12c.503-1.792 1.169-3.38 2-4.661C6.2 2.509 4.302 4.192 2.932 6.223zm17.133 8.584l-5.095.178.16 4.585 4.49-.156c.303-1.436.45-3.024.445-4.607zm-.836-6.602l-4.49.156.16 4.586 5.095-.178a31.363 31.363 0 00-.765-4.564z" fill="#159ED9"/><path d="M11.25 8.484l-8.814.307a1.441 1.441 0 00-1.402 1.486l.54 15.472c.029.82.724 1.411 1.502 1.384l8.815-.308a1.441 1.441 0 001.402-1.485l-.54-15.473c-.03-.82-.673-1.412-1.503-1.383zM8.433 25.92l-1.919.067a.517.517 0 01-.536-.494.517.517 0 01.5-.53l1.919-.067a.517.517 0 01.536.494c.01.256-.24.521-.5.53zm3.738-2.952a.705.705 0 01-.7.743l-8.141.284a.705.705 0 01-.751-.692l-.446-12.757a.705.705 0 01.701-.743l8.14-.284a.705.705 0 01.752.692l.445 12.757z" fill="#657684"/><path d="M3.66 11.81l6.58-.23a.521.521 0 00.513-.528c-.01-.306-.283-.5-.548-.492l-6.581.23a.521.521 0 00-.513.528c.01.306.283.5.548.491zm.099 2.036l3.467-.12c.335-.012.55-.275.541-.53-.01-.305-.297-.5-.577-.49l-3.467.121c-.335.012-.55.275-.541.53.01.305.297.5.577.49zm6.588.791l-6.581.23a.521.521 0 00-.513.527c.01.306.283.5.549.492l6.58-.23a.522.522 0 00.513-.528c-.01-.306-.23-.502-.548-.491zm-.908 2.072l-5.595.195a.525.525 0 00-.52.528c.01.306.287.5.556.491l5.54-.193a.525.525 0 00.52-.529c.044-.307-.232-.502-.501-.492zM7.398 18.82l-3.462.121c-.335.012-.55.274-.54.53.01.305.296.499.575.49l3.462-.122c.335-.011.55-.274.54-.529.048-.256-.24-.501-.575-.49z" fill="#159ED9"/></svg>