<svg width="28" height="28" fill="none" xmlns="http://www.w3.org/2000/svg"><path d="M10.84 4.986c-.26-1.02-1.3-1.653-2.273-1.253A12.5 12.5 0 004.715 6.22a12.202 12.202 0 00-3.327 5.44 12.04 12.04 0 00-.107 6.348 12.223 12.223 0 003.142 5.554 12.568 12.568 0 005.549 3.272c2.11.594 4.341.633 6.47.113a12.548 12.548 0 005.656-3.075 12.25 12.25 0 002.626-3.604c.467-.978-.15-2.076-1.194-2.37-1.03-.29-2.084.321-2.611 1.252a8.436 8.436 0 01-1.537 1.964 8.627 8.627 0 01-3.889 2.114 8.753 8.753 0 01-4.448-.078A8.64 8.64 0 017.23 20.9a8.403 8.403 0 01-2.16-3.818 8.278 8.278 0 01.073-4.364 8.389 8.389 0 012.288-3.74 8.577 8.577 0 012.072-1.45c.955-.476 1.601-1.509 1.338-2.543z" fill="url(#paint0_radial_64_209)"/><path d="M24.828 15.569c1.055.2 2.09-.493 2.123-1.567.038-1.224-.11-2.45-.445-3.639a12.216 12.216 0 00-2.713-4.896 12.523 12.523 0 00-4.64-3.216 12.71 12.71 0 00-3.685-.863c-1.058-.086-1.858.85-1.78 1.909.08 1.053 1.002 1.822 2.046 1.977.667.1 1.323.276 1.952.527a8.61 8.61 0 013.19 2.211 8.398 8.398 0 011.865 3.366c.173.614.273 1.242.302 1.873.048 1.082.72 2.117 1.785 2.318z" fill="url(#paint1_radial_64_209)"/><path fill-rule="evenodd" clip-rule="evenodd" d="M18.562 10.33c.66.695.621 1.781-.085 2.427L14.6 16.303a1.774 1.774 0 01-2.474-.086 1.694 1.694 0 01.085-2.427l3.876-3.546a1.774 1.774 0 012.474.087z" fill="url(#paint2_linear_64_209)"/><defs><radialGradient id="paint0_radial_64_209" cx="0" cy="0" r="1" gradientUnits="userSpaceOnUse" gradientTransform="rotate(92 -.562 13.997) scale(12.2642 12.5)"><stop stop-color="#61FFFF"/><stop offset="1" stop-color="#3D44E4"/></radialGradient><radialGradient id="paint1_radial_64_209" cx="0" cy="0" r="1" gradientUnits="userSpaceOnUse" gradientTransform="rotate(92 .657 13.786) scale(13.4906 13.75)"><stop stop-color="#61FFF6"/><stop offset="1" stop-color="#2BC23A"/></radialGradient><linearGradient id="paint2_linear_64_209" x1="11.856" y1="16.465" x2="17.391" y2="11.11" gradientUnits="userSpaceOnUse"><stop stop-color="#BE1111"/><stop offset="1" stop-color="#E87240"/></linearGradient></defs></svg>