<svg width="22" height="22" fill="none" xmlns="http://www.w3.org/2000/svg"><path d="M11 0a11 11 0 100 22 11 11 0 000-22zM1.357 11.831h3.067c.05 1.112.205 2.217.465 3.3h-2.64a9.606 9.606 0 01-.892-3.3zm10.474-6.6V1.454A5.048 5.048 0 0114.544 3.9c.251.424.472.865.66 1.32l-3.373.012zm3.936 1.65c.283 1.08.452 2.185.5 3.3h-4.436v-3.3h3.936zm-5.598-5.427v3.777H6.796c.188-.455.409-.896.66-1.32a5.048 5.048 0 012.713-2.457zm0 5.427v3.3H5.744c.05-1.115.218-2.22.502-3.3h3.923zM4.424 10.17H1.357c.097-1.145.4-2.262.892-3.3h2.64a17.27 17.27 0 00-.465 3.3zm1.32 1.662h4.425v3.3H6.246a15.74 15.74 0 01-.502-3.3zm4.437 4.889v3.777a5.048 5.048 0 01-2.713-2.445 10.353 10.353 0 01-.66-1.32l3.373-.012zm1.65 3.777V16.78h3.373c-.188.455-.409.896-.66 1.32a5.048 5.048 0 01-2.713 2.445v-.05zm0-5.427v-3.3h4.425a15.741 15.741 0 01-.502 3.3h-3.923zm5.757-3.3h3.068a9.608 9.608 0 01-.893 3.3h-2.652a17.36 17.36 0 00.465-3.239l.012-.061zm0-1.65a17.272 17.272 0 00-.477-3.239h2.64a9.609 9.609 0 01.892 3.3l-3.055-.061zm1.222-4.889h-2.188a10.9 10.9 0 00-1.699-3.08 9.778 9.778 0 013.838 3.08h.049zM7.077 2.151a10.902 10.902 0 00-1.7 3.08H3.24a9.778 9.778 0 013.838-3.08zm-3.85 14.667h2.15c.397 1.112.97 2.152 1.7 3.08a9.778 9.778 0 01-3.838-3.117l-.012.037zm11.684 3.08a10.902 10.902 0 001.699-3.08h2.151a9.778 9.778 0 01-3.838 3.03l-.012.05z" fill="#fff"/></svg>