<svg width="55" height="54" fill="none" xmlns="http://www.w3.org/2000/svg"><path fill-rule="evenodd" clip-rule="evenodd" d="M13.695 35.112c3.794 3.344 6.424 7.275 9.383 11.285a1.764 1.764 0 01-2.84 2.091c-2.805-3.803-5.275-7.559-8.879-10.736a1.756 1.756 0 01-.151-2.483 1.762 1.762 0 012.487-.157zm3.031-13.685c11.02 1.47 22.873 4.972 32.864 9.88a1.755 1.755 0 01.798 2.355 1.768 1.768 0 01-2.36.803c-9.66-4.745-21.123-8.132-31.777-9.549a1.757 1.757 0 01-1.508-1.977 1.767 1.767 0 011.983-1.512zm-2.952-7.907c5.47-5.3 13.038-7.982 20.353-9.427a1.759 1.759 0 012.066 1.384 1.768 1.768 0 01-1.391 2.07c-6.664 1.314-13.596 3.67-18.579 8.496a1.764 1.764 0 01-2.49-.035 1.761 1.761 0 01.041-2.488z" fill="#0E84DA"/></svg>