<svg width="59" height="59" fill="none" xmlns="http://www.w3.org/2000/svg"><path fill-rule="evenodd" clip-rule="evenodd" d="M36.424 47.957c-3.538 1.567-6.878 3.648-10.1 5.688-.691.441-.91 1.361-.444 2.015a1.453 1.453 0 001.985.48c3.12-1.98 6.352-4.008 9.73-5.495.723-.313 1.061-1.181.744-1.929a1.46 1.46 0 00-1.915-.76zm-.828-18.683c-8.542-.912-17.161-.732-25.72-1.846-.779-.12-1.516.45-1.612 1.246-.096.796.452 1.547 1.276 1.63 8.57 1.128 17.2.96 25.754 1.887a1.494 1.494 0 001.623-1.324c.042-.77-.506-1.52-1.321-1.593zM29.13 3.882l7.149 7.801c.515.622 1.45.655 2.052.105.602-.55.611-1.45.096-2.072l-7.16-7.814a1.495 1.495 0 00-2.09-.06c-.555.516-.607 1.456-.047 2.04z" fill="#F1553F"/></svg>