<svg width="55" height="131" fill="none" xmlns="http://www.w3.org/2000/svg"><path fill-rule="evenodd" clip-rule="evenodd" d="M50.67 100.753c-.14.242-.255.475-.326.68-.814 2.367-1.224 4.818-1.845 7.235-1.758 6.84-1.435 14.152 1.109 20.728a1.231 1.231 0 002.295-.888c-2.36-6.101-2.652-12.885-1.022-19.228.606-2.355 1-4.741 1.793-7.049.118-.344.46-.779.733-1.199.295-.459.537-.907.637-1.264.164-.59.059-1.08-.202-1.457a1.626 1.626 0 00-.926-.643c-.186-.053-.51-.09-.954.01-.677.149-2.103.723-3.973 1.475-3.063 1.236-7.4 2.963-11.503 3.852-2.572.559-5.044.801-6.998.298a1.232 1.232 0 10-.615 2.386c2.267.584 5.144.373 8.135-.277 4.243-.922 8.735-2.699 11.904-3.976a77.183 77.183 0 011.758-.683z" fill="#3B3E45"/><path fill-rule="evenodd" clip-rule="evenodd" d="M47.697 101.819c-2.541 11.966-8.605 18.315-15.575 19.903-10.49 2.388-22.646-5.937-27.11-21.145-11.17-38.06 16.017-77.48 45.717-97.742A1.233 1.233 0 0049.34.801C18.848 21.604-8.82 62.194 2.65 101.269c4.898 16.691 18.507 25.476 30.02 22.854 7.697-1.755 14.63-8.577 17.435-21.791a1.233 1.233 0 00-.947-1.46 1.228 1.228 0 00-1.46.947z" fill="#3B3E45"/></svg>