<svg width="70" height="70" fill="none" xmlns="http://www.w3.org/2000/svg"><path fill-rule="evenodd" clip-rule="evenodd" d="M27.727 13.795a39.565 39.565 0 01-.42-3.313c-.137-1.65-.052-3.312-.1-4.962-.022-.7-.106-2.525-.072-2.788.306-2.287 2.152-2.637 2.692-2.7.262-.037 2.944-.337 3.523 2.638.71 3.637.937 7.3.686 10.887a36.481 36.481 0 002.913 8.838c5.267 10.937 15.305 12 26.18 11.9a3.115 3.115 0 013.148 2.95 3.118 3.118 0 01-2.822 3.275c-6.079.587-16.864 5.462-20.593 10.537-.78 1.063-1.233 3.625-1.833 6.138-.838 3.487-1.834 6.937-2.95 8.387-.168.225-2.204 2.525-2.812 2.863-1.46.8-2.628.337-3.292-.088-.664-.425-1.415-1.262-1.715-2.65-.314-1.45-.049-4.425-.098-5.062-.177-2.313-.64-6.85-1.583-10.75-.51-2.1-1.052-4.038-1.95-5-3.322-3.563-8.634-3.038-13.108-2.45-.514.062-1.027.137-1.54.2a34.55 34.55 0 01-5.799 1.175c-3.086.362-3.593-2.475-3.62-2.663-.058-.412-.272-2.537 2.054-3.387.254-.088 2.126-.5 2.848-.663a49.27 49.27 0 013.04-.562c10.537-3.275 16.26-12.475 17.223-22.75zm3.617 11.362c3.977 8.225 10.013 12.2 17.168 14-4.468 2.338-8.532 5.263-10.686 8.2-.817 1.113-1.567 3.35-2.244 5.863-.366-2.338-.86-4.825-1.515-6.95-.743-2.425-1.745-4.438-2.862-5.638-2.158-2.312-4.865-3.6-7.776-4.237 3.485-3.088 6.127-6.938 7.915-11.238z" fill="#2BC23A" opacity=".5"/></svg>