<svg width="48" height="48" fill="none" xmlns="http://www.w3.org/2000/svg"><g clip-path="url(#clip0_16_1265)" fill="#2BC23A"><path fill-rule="evenodd" clip-rule="evenodd" d="M41.322 13.404c-5.54 15.694-20.186 23.999-35.904 18.088a1.016 1.016 0 00-1.305.585c-.197.526.068 1.11.591 1.308 16.85 6.343 32.588-2.488 38.527-19.304a1.018 1.018 0 00-.618-1.295 1.02 1.02 0 00-1.29.618z"/><path d="M16.615 23.392a2.948 2.948 0 10-.905-5.827 2.948 2.948 0 00.905 5.827zm11.58-4.972a2.89 2.89 0 10-.887-5.713 2.89 2.89 0 00.887 5.713z"/></g><defs><clipPath id="clip0_16_1265"><path fill="#fff" transform="rotate(-8.826 41.751 3.222)" d="M0 0h42v42H0z"/></clipPath></defs></svg>