<svg width="320" height="538" fill="none" xmlns="http://www.w3.org/2000/svg"><g opacity=".15"><mask id="a" style="mask-type:alpha" maskUnits="userSpaceOnUse" x="-120" y="-11" width="560" height="560"><circle cx="160" cy="269" r="280" fill="url(#paint0_radial_0_5)"/></mask><g mask="url(#a)" stroke="#204CD8"><circle cx="159.925" cy="268.925" r="200.47" stroke-width="5" stroke-linecap="round"/><circle cx="160.132" cy="269.132" r="165.049" stroke-width="4" stroke-linecap="round"/><circle cx="159.94" cy="268.94" r="132.84" stroke-width="3" stroke-linecap="round"/><circle cx="160" cy="269" r="104.135" stroke-width="2" stroke-linecap="round"/><circle cx="160.157" cy="269.157" r="91.786" stroke-linecap="round"/><circle cx="160.175" cy="269.175" r="79.52" stroke-linecap="round"/><circle cx="160.054" cy="269.054" r="67.838"/><circle cx="159.88" cy="268.88" r="57.409" stroke-width="2"/><circle cx="159.997" cy="268.997" r="47.771" stroke-width="2"/><circle cx="160.06" cy="269.06" r="39.886" stroke-width="2"/><circle cx="160.123" cy="269.123" r="32.001" stroke-width="2"/><circle cx="159.84" cy="268.84" r="25.576" stroke-width="2"/><circle cx="159.919" cy="268.919" r="19.151" stroke-width="2"/><circle cx="159.943" cy="268.943" r="14.478" stroke-width="2"/><circle cx="160.12" cy="269.12" r="10.682" stroke-width="2"/><circle cx="160.16" cy="269.16" r="7.469" stroke-width="2"/><circle cx="159.907" cy="268.907" r="3.965" stroke-width="2"/><circle cx="159.877" cy="268.877" r="1.044" stroke-width="2"/><circle cx="160" cy="269" r="242.316" stroke-width="6" stroke-linecap="round"/></g></g><defs><radialGradient id="paint0_radial_0_5" cx="0" cy="0" r="1" gradientUnits="userSpaceOnUse" gradientTransform="matrix(-196 0 0 -196 160 269)"><stop offset=".126" stop-opacity="0"/><stop offset="1"/></radialGradient></defs></svg>