<svg width="125" height="22" fill="none" xmlns="http://www.w3.org/2000/svg"><path d="M8.76 21.095c-1.504 0-2.904-.169-4.2-.505-1.295-.356-2.352-.851-3.172-1.487-.285-.206-.495-.42-.628-.645-.115-.243-.172-.542-.172-.897 0-.468.143-.88.429-1.235.305-.355.648-.532 1.029-.532.21 0 .41.037.6.112.21.056.457.168.743.336.819.505 1.648.88 2.486 1.122.838.225 1.762.337 2.772.337 1.257 0 2.219-.206 2.886-.617.667-.412 1-1 1-1.767 0-.58-.314-1.047-.943-1.402-.61-.356-1.705-.692-3.286-1.01-1.772-.355-3.191-.785-4.258-1.29-1.048-.505-1.82-1.132-2.315-1.88-.476-.747-.714-1.654-.714-2.72 0-1.178.343-2.235 1.029-3.17.704-.953 1.667-1.692 2.886-2.215C6.17 1.088 7.56.817 9.104.817c2.705 0 4.934.663 6.687 1.99.285.225.485.459.6.702.133.224.2.505.2.841 0 .468-.153.88-.457 1.235-.286.355-.62.532-1 .532-.21 0-.41-.028-.6-.084-.172-.056-.42-.177-.744-.364-.78-.487-1.505-.851-2.171-1.094-.648-.243-1.477-.365-2.487-.365-1.162 0-2.076.225-2.743.673-.667.43-1 1.029-1 1.795 0 .45.124.823.371 1.122.267.28.696.533 1.286.757.61.225 1.467.459 2.572.702 2.591.56 4.448 1.28 5.572 2.16 1.144.878 1.715 2.084 1.715 3.617 0 1.197-.343 2.254-1.029 3.17-.666.916-1.619 1.626-2.857 2.131-1.22.505-2.639.758-4.258.758zm29.851-2.917c.153.336.229.635.229.897 0 .524-.22.972-.657 1.346-.42.356-.905.533-1.458.533-.362 0-.705-.093-1.029-.28a1.955 1.955 0 01-.742-.898l-1.515-3.31h-9.687l-1.515 3.31a1.953 1.953 0 01-.743.898c-.305.187-.647.28-1.028.28a2.297 2.297 0 01-1.486-.533c-.439-.374-.658-.822-.658-1.346 0-.262.077-.56.229-.897l7.716-15.903c.209-.449.523-.785.942-1.01.42-.243.867-.364 1.343-.364.496 0 .953.121 1.372.364.42.243.743.58.972 1.01l7.715 15.903zm-13.345-5.02h6.659L28.61 5.864l-3.344 7.292zM59.185.929c.629 0 1.134.205 1.515.617.4.392.6.907.6 1.542V19.02c0 .617-.181 1.103-.543 1.459-.362.355-.838.532-1.429.532-.572 0-1.038-.177-1.4-.533-.362-.355-.543-.84-.543-1.458v-9.9l-4.058 7.488c-.267.486-.562.841-.886 1.066-.305.224-.676.336-1.114.336-.42 0-.79-.112-1.115-.336-.324-.225-.619-.58-.886-1.066L45.27 9.259v9.76c0 .598-.181 1.085-.543 1.459-.362.355-.838.532-1.429.532-.572 0-1.038-.177-1.4-.533-.362-.355-.543-.84-.543-1.458V3.089c0-.636.19-1.15.571-1.543.4-.412.915-.617 1.543-.617.915 0 1.61.476 2.086 1.43l5.801 10.798L57.128 2.36c.514-.954 1.2-1.43 2.057-1.43zm21.74 9.003c.534 0 .953.15 1.258.448.324.281.486.674.486 1.178v5.47c0 .748-.067 1.327-.2 1.739a1.85 1.85 0 01-.63.981c-.304.243-.761.449-1.37.617-.744.225-1.601.402-2.573.533a19.97 19.97 0 01-2.714.197c-2.134 0-3.982-.402-5.544-1.206-1.562-.823-2.762-1.992-3.6-3.506-.839-1.534-1.258-3.347-1.258-5.441 0-2.057.41-3.843 1.229-5.357A8.596 8.596 0 0169.58 2.05c1.543-.823 3.343-1.234 5.4-1.234 2.649 0 4.84.673 6.573 2.019.286.224.486.449.6.673.115.224.172.505.172.841 0 .487-.143.907-.429 1.263-.267.336-.59.504-.972.504-.247 0-.476-.037-.685-.112a5.293 5.293 0 01-.715-.364c-.8-.487-1.533-.832-2.2-1.038a7.438 7.438 0 00-2.2-.309c-3.887 0-5.83 2.216-5.83 6.647 0 2.282.505 3.983 1.515 5.105 1.01 1.122 2.533 1.683 4.572 1.683 1.105 0 2.2-.14 3.286-.42V12.96h-2.629c-.552 0-.981-.131-1.286-.393-.305-.262-.457-.636-.457-1.122 0-.486.152-.86.457-1.122.305-.261.734-.392 1.286-.392h4.886zm24.298 8.246c.152.336.229.635.229.897 0 .524-.22.972-.658 1.346a2.186 2.186 0 01-1.457.533c-.362 0-.705-.093-1.029-.28a1.958 1.958 0 01-.743-.898l-1.514-3.31h-9.688l-1.514 3.31c-.172.393-.42.692-.743.898-.305.187-.648.28-1.029.28a2.297 2.297 0 01-1.486-.533c-.438-.374-.657-.822-.657-1.346 0-.262.076-.56.229-.897l7.715-15.903a2.14 2.14 0 01.943-1.01c.42-.243.867-.364 1.343-.364.495 0 .953.121 1.372.364.419.243.743.58.971 1.01l7.716 15.903zm-13.345-5.02h6.658l-3.315-7.293-3.343 7.292zm24.435 7.937c-2.82 0-4.972-.711-6.458-2.132-1.467-1.44-2.2-3.534-2.2-6.283V3.088c0-.654.2-1.178.6-1.57.4-.393.933-.59 1.6-.59s1.191.197 1.572.59c.4.392.6.916.6 1.57v9.789c0 1.57.362 2.767 1.085 3.59.743.822 1.81 1.234 3.201 1.234s2.457-.412 3.2-1.234c.743-.842 1.115-2.038 1.115-3.59V3.088c0-.654.19-1.178.571-1.57.4-.393.934-.59 1.601-.59.666 0 1.2.197 1.6.59.4.392.6.916.6 1.57v9.592c0 2.73-.743 4.815-2.229 6.255-1.486 1.44-3.639 2.16-6.458 2.16z" fill="#fff"/></svg>