<svg width="100" height="18" fill="none" xmlns="http://www.w3.org/2000/svg"><path d="M6.47 17.1a12.93 12.93 0 01-3.29-.4c-1.001-.283-1.826-.667-2.473-1.153a2.15 2.15 0 01-.552-.635c-.103-.22-.155-.501-.155-.846 0-.47.132-.878.397-1.223.265-.345.575-.517.928-.517.191 0 .375.031.552.094.176.063.397.18.662.353.604.36 1.2.619 1.789.776.603.156 1.28.235 2.031.235.869 0 1.524-.134 1.965-.4.457-.282.685-.69.685-1.223 0-.36-.214-.666-.64-.917-.413-.266-1.208-.525-2.385-.776-1.457-.329-2.598-.72-3.423-1.175-.824-.455-1.405-.988-1.744-1.6C.493 7.068.331 6.315.331 5.438c0-1.004.28-1.913.84-2.728.559-.815 1.324-1.45 2.296-1.904C4.453.336 5.557.1 6.779.1c1.074 0 2.031.126 2.87.376a7.03 7.03 0 012.297 1.176c.264.204.449.423.552.658.117.22.176.494.176.823 0 .47-.132.878-.397 1.223-.25.345-.552.517-.905.517-.192 0-.369-.023-.53-.07a4.296 4.296 0 01-.685-.376 14.056 14.056 0 00-.64-.353 4.185 4.185 0 00-1.215-.47 5.655 5.655 0 00-1.501-.189c-.75 0-1.354.157-1.81.47-.457.299-.685.698-.685 1.2 0 .298.08.54.243.729.162.188.463.376.905.564.441.173 1.097.353 1.965.54 1.413.33 2.525.73 3.334 1.2.81.455 1.384.988 1.723 1.599.338.611.507 1.332.507 2.163 0 1.035-.272 1.952-.817 2.751-.544.784-1.31 1.395-2.296 1.834-.972.424-2.105.635-3.4.635zm24.009-2.87c.132.298.198.588.198.87 0 .518-.198.957-.596 1.317-.383.36-.824.541-1.325.541-.338 0-.647-.094-.927-.282-.28-.188-.5-.47-.662-.847l-.994-2.374h-7.154l-1.016 2.374c-.162.377-.39.659-.684.847a1.63 1.63 0 01-.928.282c-.5 0-.956-.18-1.369-.54-.397-.361-.596-.8-.596-1.317 0-.283.066-.573.199-.87l5.83-12.745c.19-.423.47-.744.838-.964A2.359 2.359 0 0122.552.17c.441 0 .854.117 1.236.352.383.22.67.541.861.964l5.83 12.744zm-10.091-4.02h4.416l-2.208-5.244-2.208 5.244zM46.746.193c.56 0 1.016.196 1.37.588.353.392.53.901.53 1.528V15.1c0 .596-.163 1.066-.486 1.411-.324.345-.751.518-1.281.518-.515 0-.942-.173-1.28-.518-.325-.345-.487-.815-.487-1.41V8.188l-2.517 4.937c-.25.502-.515.863-.795 1.082-.28.204-.61.306-.993.306s-.714-.102-.994-.306c-.28-.22-.545-.58-.795-1.082L36.523 8.33v6.77c0 .58-.17 1.05-.508 1.411-.324.345-.75.518-1.28.518-.516 0-.943-.173-1.281-.518-.324-.345-.486-.815-.486-1.41V2.309c0-.627.177-1.136.53-1.528.368-.392.832-.588 1.391-.588.397 0 .758.126 1.082.376.324.236.596.58.817 1.035l4.063 8.136 4.04-8.136c.457-.94 1.075-1.41 1.855-1.41zM64.252 7.53c.485 0 .868.148 1.148.446.294.282.441.666.441 1.152v4.091c0 .784-.058 1.388-.176 1.811-.103.408-.302.729-.596.964-.28.235-.707.439-1.281.611-.574.157-1.214.275-1.921.353-.692.094-1.34.141-1.943.141-1.693 0-3.165-.337-4.416-1.01a6.998 6.998 0 01-2.849-2.94c-.662-1.285-.993-2.806-.993-4.562 0-1.724.331-3.22.993-4.49.663-1.286 1.605-2.274 2.827-2.963 1.222-.69 2.65-1.035 4.283-1.035 1.03 0 1.95.133 2.76.4.825.25 1.59.643 2.297 1.175.25.189.427.392.53.612.118.22.176.501.176.846 0 .486-.125.902-.375 1.247-.25.329-.552.493-.905.493-.236 0-.442-.031-.619-.094a6.243 6.243 0 01-.64-.376 7.104 7.104 0 00-1.546-.682 5.368 5.368 0 00-1.545-.211c-1.399 0-2.444.415-3.136 1.246-.677.83-1.015 2.108-1.015 3.832 0 1.772.353 3.088 1.06 3.95.72.847 1.818 1.27 3.29 1.27.706 0 1.405-.078 2.097-.235v-3.08h-1.59c-.485 0-.86-.126-1.126-.376-.265-.267-.397-.635-.397-1.105s.132-.831.397-1.082c.265-.266.64-.4 1.126-.4h3.644zm19.698 6.7c.133.298.2.588.2.87 0 .518-.2.957-.597 1.317-.383.36-.824.541-1.325.541-.338 0-.647-.094-.927-.282-.28-.188-.5-.47-.663-.847l-.993-2.374H72.49l-1.016 2.374c-.162.377-.39.659-.684.847a1.63 1.63 0 01-.928.282c-.5 0-.957-.18-1.369-.54-.397-.361-.596-.8-.596-1.317 0-.283.066-.573.199-.87l5.829-12.745c.191-.423.471-.744.84-.964A2.358 2.358 0 0176.023.17c.441 0 .853.117 1.236.352.383.22.67.541.861.964l5.83 12.744zm-10.09-4.02h4.416l-2.208-5.244-2.208 5.244zm19.229 6.89c-2.252 0-3.967-.612-5.145-1.835-1.163-1.223-1.744-3.01-1.744-5.36V2.308c0-.642.176-1.152.53-1.528.368-.392.853-.588 1.457-.588.603 0 1.082.196 1.435.588.368.376.552.886.552 1.528v7.76c0 1.191.25 2.108.75 2.75.501.643 1.223.965 2.165.965s1.663-.322 2.164-.964c.5-.643.75-1.56.75-2.751v-7.76c0-.642.177-1.152.53-1.528.368-.392.854-.588 1.458-.588.603 0 1.089.196 1.457.588.368.376.552.886.552 1.528v7.595c0 2.336-.596 4.123-1.788 5.361-1.178 1.223-2.886 1.834-5.123 1.834z" fill="#3B3E45"/></svg>